<?xml version="1.0" encoding="utf-8"?>
<!-- Uploaded to SVGRepo https://www.svgrepo.com -->
<svg version="1.2" baseProfile="tiny" id="Layer_1" xmlns="http://www.w3.org/2000/svg" xmlns:xlink="http://www.w3.org/1999/xlink"
	 x="0px" y="0px" viewBox="0 0 256 256" xml:space="preserve">
<path id="XMLID_1_" d="M184.1,198.4 M79,218.3h107.5V45.1h-73.9c-3.5-9.8-11.4-17.5-21.3-21.3V0l-58,0v111c0.1,5.4,4.3,9.6,9.6,9.6
	V99.3c0-2.2,1.9-3.8,3.8-3.8c2.1,0,3.8,1.9,3.8,3.8v31.1c0,1.2,0.2,2.5,0.7,3.5c1,2.9,3.8,5.1,6.9,5.8c0.5,0.2,1.2,0.2,2,0.2v-36.7
	c0-2.2,1.9-3.8,3.8-3.8c2.1,0,3.8,1.9,3.8,3.8v46.3c0,0.9,0.2,1.8,0.3,2.5c0.2,0.9,0.7,2,1.2,2.8c0.7,0.9,1.6,2,2.7,2.7
	c0.7,0.5,2,0.9,2.8,1.2c0.5,0,1.2,0.2,2.3,0.2c0.5,0,1.2,0,2-0.2V218.3z M87.4,210.7V81.2c0.3-1.9,1.9-3.3,3.7-3.3
	c2.1,0,3.8,1.9,3.8,3.8c0,0-0.2,34-0.2,34.7c0,5.4,4.3,9.8,9.8,9.8c0.5,0,1.2,0,1.8-0.2c0,0,0,0,0.2,0c0.5-0.2,1.2-0.3,1.8-0.5
	c1.7-0.7,3.1-1.8,4.1-3c0,0,1.5-1.7,1.9-5.8c0,0-0.1-62.3-0.1-63.5l64.4-0.1v157.5L87.4,210.7z M245,176v80H15v-80h57v22H53v27h157
	v-27h-16v-22H245z"/>
</svg>
